# Blender v2.83.0 OBJ File: ''
# www.blender.org
mtllib low_poly_tree_triangles.mtl
o Cylinder
v 0.019167 3.227034 0.022686
v 0.199847 2.466368 -0.186952
v 0.015674 2.466367 -0.253986
v 0.033842 3.227034 0.034999
v 0.292234 2.403041 -0.023413
v 0.263809 2.466367 0.175798
v 0.032072 3.227034 0.045037
v 0.113670 2.466367 0.301780
v 0.014070 3.227034 0.051589
v -0.087932 2.403041 0.295584
v -0.232462 2.466367 0.175798
v 0.004492 3.227034 0.034999
v -0.266496 2.466367 -0.017217
v 0.024263 3.227034 0.051589
v 0.009589 3.227034 0.026172
v -0.174109 2.403041 -0.193148
v -0.353069 -0.872769 0.994068
v -0.005440 -0.809443 -0.939428
v 0.979368 -1.003520 -0.113076
v -1.162461 -1.054853 -0.150182
v -0.569643 -0.516713 -0.618026
v -0.766733 -1.118179 -0.851516
v -0.006855 -1.054853 -1.119851
v -1.023078 -1.054853 0.640299
v -0.862932 -0.453387 -0.094124
v -0.306797 -0.516713 0.872648
v -0.413802 -1.118179 1.150053
v 0.394483 -1.054853 1.156250
v 1.009368 -1.054853 0.640300
v 0.296607 -0.453387 0.878845
v 0.858351 -0.453387 -0.094124
v 1.143143 -1.118179 -0.156378
v 0.747414 -1.054853 -0.845319
v -0.002290 -0.453387 -0.816288
v -0.470645 1.692862 -0.047718
v -0.106769 2.453131 -0.103204
v -0.309076 1.629535 -0.343475
v 0.010725 1.692862 -0.451635
v -0.412585 1.692862 0.281558
v -0.162981 2.516458 0.010068
v -0.052405 2.453131 0.205109
v -0.162062 1.629536 0.490282
v 0.177903 1.692862 0.496478
v 0.434034 1.692862 0.281558
v 0.076845 2.516458 0.211305
v 0.193029 2.516458 0.010068
v 0.486486 1.629535 -0.053915
v 0.324917 1.692862 -0.337279
v 0.015024 2.516458 -0.139296
v 0.010529 1.745409 -0.315061
v 0.463775 0.842699 -0.504165
v 0.005286 0.842699 -0.671042
v 0.365764 1.745409 -0.016983
v 0.702124 0.779372 -0.087815
v 0.623007 0.842699 0.398883
v 0.133901 1.745409 0.384616
v 0.249243 0.842699 0.712509
v -0.118452 1.682083 0.378420
v -0.244281 0.779373 0.706312
v -0.612436 0.842699 0.398883
v -0.344706 1.745409 -0.016983
v -0.697161 0.842699 -0.081619
v -0.226943 1.682082 -0.236866
v -0.458813 0.779373 -0.510362
v -0.864248 0.078844 -0.105654
v -0.359524 0.831434 -0.384325
v -0.569569 0.015518 -0.631965
v 0.000399 0.078844 -0.831178
v -0.759959 0.078845 0.485799
v -0.545192 0.894761 -0.046827
v -0.191317 0.831434 0.569622
v -0.305499 0.015518 0.865646
v 0.300687 0.078845 0.871843
v 0.760756 0.078844 0.485799
v 0.196847 0.894761 0.575818
v 0.556331 0.894761 -0.046827
v 0.859436 0.015518 -0.111850
v 0.564756 0.078845 -0.625769
v 0.005569 0.894761 -0.508971
v 0.001149 0.136518 -0.681816
v 0.669916 -0.512940 -0.752068
v -0.003388 -0.512941 -0.997131
v 0.726197 0.136518 -0.073428
v 1.022565 -0.576267 -0.137744
v 0.903752 -0.512940 0.574081
v 0.252955 0.136519 0.746250
v 0.354870 -0.512940 1.034648
v -0.256267 0.073192 0.740054
v -0.367254 -0.576267 1.028452
v -0.910528 -0.512940 0.574081
v -0.723899 0.136518 -0.073428
v -1.034949 -0.512941 -0.131548
v -0.477702 0.073192 -0.515766
v -0.682301 -0.576267 -0.758265
v -0.141511 2.516458 0.131830
v 0.171559 2.516458 0.131830
v 0.131209 2.516458 -0.097008
v 0.242392 1.745409 -0.230669
v 0.322917 1.745409 0.226012
v -0.301860 1.745409 0.226012
v -0.478762 0.894761 0.329916
v 0.489901 0.894761 0.329917
v 0.365054 0.894761 -0.378129
v 0.474390 0.136519 -0.509570
v 0.638746 0.136519 0.422534
v -0.636448 0.136519 0.422534
v -0.759126 -0.453387 0.494589
v 0.754545 -0.453387 0.494589
v 0.559453 -0.453387 -0.611830
v 0.637348 -0.809443 -0.705472
v 0.860586 -1.003520 0.560572
v 0.336580 -0.809443 1.000265
v -0.871465 -1.003520 0.560572
v -0.990247 -1.003520 -0.113076
v -0.653837 -1.066847 -0.711668
v 0.028745 3.227034 0.026172
v 0.006262 3.227034 0.045037
v -0.018886 -0.720161 -0.373037
v 0.161257 -1.314390 -0.198870
v -0.018886 -1.314390 -0.264436
v 0.231064 -0.720161 -0.282063
v 0.257109 -1.314390 -0.032850
v 0.317871 -0.720161 0.210242
v 0.223820 -1.314390 0.155942
v 0.114110 -0.720161 0.381218
v 0.076966 -1.314390 0.279167
v -0.151881 -0.720161 0.381218
v -0.114738 -1.314390 0.279166
v -0.355642 -0.720161 0.210242
v -0.261591 -1.314390 0.155942
v -0.294880 -1.314390 -0.032850
v -0.199028 -1.314390 -0.198870
v -0.268836 -0.720161 -0.282063
v 0.231064 -1.895607 -0.282063
v 0.317871 -1.895607 0.210242
v -0.151881 -1.895607 0.381218
v -0.268836 -1.895607 -0.282063
v -0.401831 -1.895607 -0.051708
v -0.018886 -1.895607 -0.373037
v -0.355642 -1.895607 0.210242
v 0.114110 -1.895607 0.381218
v 0.364060 -1.895607 -0.051708
v 0.364060 -0.720161 -0.051708
v -0.401831 -0.720161 -0.051708
vn 0.3238 0.3221 -0.8896
vn 0.8751 0.3014 -0.3786
vn 0.8292 0.3156 -0.4613
vn 0.8754 0.3013 -0.3779
vn 0.9389 0.3111 0.1474
vn 0.9541 0.2964 0.0429
vn 0.9542 0.2962 0.0420
vn 0.6108 0.3112 0.7280
vn 0.6109 0.3112 0.7280
vn -0.1211 0.2958 0.9475
vn -0.0176 0.3103 0.9505
vn -0.1220 0.2957 0.9475
vn -0.5989 0.3144 0.7365
vn -0.5277 0.3007 0.7944
vn -0.5271 0.3006 0.7949
vn -0.9327 0.3210 0.1645
vn 0.0000 1.0000 0.0000
vn -0.3321 0.3237 -0.8860
vn -0.3833 0.3165 -0.8677
vn -0.3837 0.3165 -0.8675
vn -0.7885 0.3163 -0.5274
vn -0.8150 0.3232 -0.4809
vn -0.7883 0.3162 -0.5278
vn 0.0527 -0.9973 0.0520
vn 0.0902 -0.9956 -0.0271
vn -0.0956 -0.9908 -0.0962
vn -0.7667 0.4307 -0.4761
vn -0.7667 0.4310 -0.4758
vn -0.7670 0.4346 -0.4720
vn -0.3357 0.4303 -0.8379
vn -0.3360 0.4300 -0.8380
vn -0.3319 0.4339 -0.8376
vn -0.8898 0.4285 0.1569
vn -0.5510 0.4228 0.7195
vn -0.5509 0.4225 0.7197
vn -0.5534 0.4280 0.7146
vn -0.0461 0.4181 0.9072
vn -0.0456 0.4186 0.9070
vn -0.0402 0.4244 0.9046
vn 0.5844 0.4163 0.6965
vn 0.9072 0.3971 0.1387
vn 0.9071 0.3973 0.1388
vn 0.9163 0.3810 0.1236
vn 0.8015 0.4035 -0.4414
vn 0.8014 0.4036 -0.4415
vn 0.8138 0.3891 -0.4317
vn 0.3093 0.4266 -0.8499
vn -0.7892 0.3404 -0.5112
vn -0.7683 0.3276 -0.5499
vn -0.7919 0.3421 -0.5058
vn -0.4089 0.3272 -0.8519
vn -0.3669 0.3401 -0.8659
vn -0.3611 0.3418 -0.8676
vn -0.9279 0.3351 0.1636
vn -0.4821 0.3107 0.8192
vn -0.5433 0.3348 0.7699
vn -0.5507 0.3376 0.7634
vn -0.0910 0.3322 0.9388
vn -0.1706 0.3071 0.9363
vn -0.0796 0.3356 0.9386
vn 0.6078 0.3254 0.7244
vn 0.9350 0.3223 0.1478
vn 0.9463 0.3087 0.0964
vn 0.9474 0.3070 0.0902
vn 0.8507 0.3140 -0.4216
vn 0.8257 0.3263 -0.4602
vn 0.8536 0.3125 -0.4169
vn 0.3224 0.3342 -0.8857
vn 0.3209 0.3458 -0.8817
vn 0.8372 0.3273 -0.4381
vn 0.8218 0.3371 -0.4593
vn 0.8413 0.3246 -0.4322
vn 0.9309 0.3337 0.1484
vn 0.9390 0.3226 0.1194
vn 0.9410 0.3195 0.1114
vn 0.6047 0.3390 0.7207
vn -0.0648 0.3444 0.9366
vn -0.0921 0.3331 0.9384
vn -0.0564 0.3478 0.9359
vn -0.5407 0.3370 0.7707
vn -0.5590 0.3474 0.7529
vn -0.5641 0.3502 0.7477
vn -0.9230 0.3487 0.1627
vn -0.3680 0.3448 -0.8635
vn -0.3532 0.3509 -0.8673
vn -0.3488 0.3527 -0.8683
vn -0.7926 0.3519 -0.4980
vn -0.7864 0.3458 -0.5119
vn -0.7944 0.3537 -0.4938
vn -0.7962 0.3517 -0.4924
vn -0.7946 0.3489 -0.4968
vn -0.7974 0.3537 -0.4890
vn -0.3516 0.3479 -0.8691
vn -0.3470 0.3506 -0.8699
vn -0.3434 0.3526 -0.8705
vn -0.9228 0.3491 0.1627
vn -0.5630 0.3416 0.7526
vn -0.5681 0.3461 0.7466
vn -0.5718 0.3493 0.7423
vn -0.0523 0.3425 0.9381
vn -0.0607 0.3376 0.9393
vn -0.0458 0.3464 0.9370
vn 0.6048 0.3385 0.7208
vn 0.9323 0.3301 0.1478
vn 0.9376 0.3214 0.1325
vn 0.9411 0.3154 0.1220
vn 0.8321 0.3267 -0.4483
vn 0.8230 0.3343 -0.4592
vn 0.8380 0.3215 -0.4409
vn 0.3209 0.3461 -0.8816
vn 0.3114 0.4133 -0.8557
vn 0.8085 0.3903 -0.4405
vn 0.8047 0.3942 -0.4440
vn 0.8188 0.3793 -0.4309
vn 0.9108 0.3884 0.1398
vn 0.9133 0.3842 0.1349
vn 0.9204 0.3718 0.1206
vn 0.5881 0.4035 0.7009
vn -0.0506 0.4058 0.9125
vn -0.0523 0.4044 0.9131
vn -0.0439 0.4117 0.9103
vn -0.5506 0.4084 0.7281
vn -0.5515 0.4099 0.7265
vn -0.5547 0.4150 0.7211
vn -0.8960 0.4150 0.1580
vn -0.3414 0.4160 -0.8429
vn -0.3402 0.4169 -0.8429
vn -0.3358 0.4205 -0.8429
vn -0.7709 0.4176 -0.4810
vn -0.7707 0.4166 -0.4822
vn -0.7716 0.4211 -0.4767
vn 0.1976 -0.8449 0.4971
vn 0.1723 -0.8739 0.4545
vn 0.2362 -0.7935 0.5608
vn 0.4213 -0.8671 0.2660
vn 0.4542 -0.8406 0.2951
vn 0.5115 -0.7864 0.3464
vn 0.4511 -0.8889 -0.0795
vn 0.0287 -0.8331 -0.5523
vn 0.0410 -0.7918 -0.6093
vn 0.0601 -0.7179 -0.6935
vn 0.3501 -0.7969 -0.4923
vn 0.3187 -0.8437 -0.4320
vn 0.3855 -0.7318 -0.5620
vn -0.3049 -0.8804 -0.3633
vn -0.6514 -0.7571 0.0494
vn -0.6106 -0.7916 0.0215
vn -0.4465 -0.8913 -0.0787
vn -0.5844 -0.7911 0.1809
vn -0.6147 -0.7692 0.1743
vn -0.3746 -0.9016 0.2163
vn -0.1439 -0.9072 0.3954
vn -0.1295 -0.9255 0.3559
vn -0.5099 -0.8472 0.1488
vn -0.5582 -0.7902 0.2529
vn -0.5938 -0.7279 0.3428
vn -0.6300 -0.7765 0.0074
vn -0.5134 -0.8575 -0.0335
vn -0.3976 -0.9149 -0.0701
vn -0.2691 -0.9081 -0.3207
vn 0.2105 -0.8683 -0.4491
vn 0.1871 -0.9027 -0.3873
vn 0.2240 -0.8452 -0.4852
vn 0.1056 -0.9009 -0.4211
vn 0.1263 -0.8681 -0.4801
vn 0.1400 -0.8433 -0.5188
vn 0.3987 -0.9144 -0.0703
vn 0.2872 -0.9185 0.2718
vn 0.3209 -0.8949 0.3102
vn 0.3447 -0.8759 0.3375
vn 0.2474 -0.8956 0.3698
vn 0.2138 -0.9202 0.3279
vn 0.2693 -0.8775 0.3969
vn 0.2303 -0.9285 0.2914
vn 0.1983 -0.9460 0.2563
vn 0.2447 -0.9196 0.3072
vn 0.2185 -0.9456 0.2409
vn 0.2466 -0.9286 0.2773
vn 0.2602 -0.9194 0.2949
vn 0.3356 -0.9401 -0.0592
vn 0.1106 -0.9359 -0.3345
vn 0.1315 -0.9137 -0.3846
vn 0.1411 -0.9022 -0.4076
vn 0.1466 -0.9133 -0.3799
vn 0.1297 -0.9364 -0.3261
vn 0.1536 -0.9024 -0.4026
vn -0.2263 -0.9360 -0.2697
vn -0.5750 -0.8181 -0.0096
vn -0.4250 -0.9042 -0.0420
vn -0.3368 -0.9397 -0.0594
vn -0.4193 -0.8985 0.1298
vn -0.4988 -0.8301 0.2492
vn -0.5353 -0.7861 0.3090
vn -0.1107 -0.9462 0.3041
vn -0.1302 -0.9247 0.3577
vn -0.4441 -0.8812 0.1619
vn -0.5499 -0.7816 0.2946
vn -0.5790 -0.7437 0.3343
vn -0.6439 -0.7641 -0.0390
vn -0.4651 -0.8830 -0.0623
vn -0.3965 -0.9154 -0.0699
vn -0.2660 -0.9104 -0.3170
vn 0.1127 -0.8920 -0.4378
vn 0.1019 -0.9146 -0.3914
vn 0.1156 -0.8853 -0.4505
vn 0.1735 -0.9151 -0.3640
vn 0.1944 -0.8935 -0.4049
vn 0.2005 -0.8866 -0.4169
vn 0.3927 -0.9170 -0.0692
vn 0.2125 -0.9282 0.3054
vn 0.2341 -0.9114 0.3385
vn 0.2407 -0.9059 0.3486
vn 0.2949 -0.9103 0.2905
vn 0.2653 -0.9276 0.2629
vn 0.3034 -0.9049 0.2984
vn 0.2569 -0.9328 0.2529
vn 0.2303 -0.9461 0.2276
vn 0.2648 -0.9285 0.2605
vn 0.1839 -0.9465 0.2653
vn 0.2039 -0.9334 0.2953
vn 0.2102 -0.9290 0.3047
vn 0.3381 -0.9392 -0.0596
vn 0.1482 -0.9386 -0.3115
vn 0.1665 -0.9225 -0.3483
vn 0.1720 -0.9172 -0.3595
vn 0.0973 -0.9215 -0.3760
vn 0.0873 -0.9383 -0.3346
vn 0.1001 -0.9163 -0.3877
vn -0.2282 -0.9348 -0.2720
vn -0.5720 -0.8196 -0.0342
vn -0.4037 -0.9133 -0.0540
vn -0.3421 -0.9377 -0.0603
vn -0.3866 -0.9113 0.1414
vn -0.4898 -0.8312 0.2630
vn -0.5192 -0.8003 0.2998
vn -0.1133 -0.9435 0.3114
vn -0.2817 -0.5673 0.7738
vn -0.7595 -0.5864 0.2817
vn -0.5850 -0.7748 0.2396
vn -0.8004 -0.5244 0.2903
vn -0.5494 -0.8348 -0.0350
vn -0.3573 -0.9327 -0.0493
vn -0.3002 -0.9524 -0.0529
vn -0.2984 -0.9023 -0.3112
vn -0.6065 -0.5963 -0.5259
vn -0.6561 -0.5090 -0.5572
vn 0.0542 -0.5309 -0.8457
vn 0.0505 -0.5406 -0.8397
vn 0.0559 -0.5261 -0.8486
vn 0.5626 -0.6120 -0.5558
vn 0.2562 -0.8920 -0.3724
vn 0.6202 -0.5243 -0.5835
vn 0.2956 -0.9539 -0.0521
vn 0.2273 -0.9150 0.3333
vn 0.4285 -0.6159 0.6611
vn 0.4603 -0.5276 0.7140
vn 0.2254 -0.9481 0.2244
vn 0.1986 -0.9594 0.2004
vn 0.2320 -0.9450 0.2304
vn 0.8212 0.3176 -0.4742
vn 0.9352 0.3133 0.1649
vn 0.0000 0.3124 0.9499
vn -0.6098 0.3163 0.7267
vn 0.0000 1.0000 -0.0001
vn -0.3235 0.3247 -0.8888
vn -0.8192 0.3243 -0.4730
vn 0.4476 -0.8275 0.3391
vn 0.2554 -0.9653 0.0540
vn 0.1381 -0.9148 -0.3795
vn -0.0859 -0.9945 0.0594
vn 0.0761 -0.8755 0.4771
vn 0.2833 -0.9577 -0.0500
vn -0.7663 0.4264 -0.4805
vn -0.3405 0.4257 -0.8384
vn -0.5481 0.4163 0.7255
vn -0.0525 0.4112 0.9100
vn 0.8949 0.4174 0.1578
vn 0.7854 0.4214 -0.4534
vn -0.7627 0.3242 -0.5597
vn -0.4196 0.3238 -0.8480
vn -0.4665 0.3045 0.8304
vn -0.1918 0.3000 0.9345
vn 0.9308 0.3265 0.1641
vn 0.8175 0.3300 -0.4720
vn 0.8138 0.3419 -0.4699
vn 0.9264 0.3392 0.1634
vn -0.1053 0.3276 0.9389
vn -0.5323 0.3322 0.7786
vn -0.3749 0.3420 -0.8617
vn -0.7834 0.3430 -0.5183
vn -0.7930 0.3462 -0.5012
vn -0.3563 0.3451 -0.8683
vn -0.5580 0.3372 0.7582
vn -0.0692 0.3324 0.9406
vn 0.9266 0.3388 0.1634
vn 0.8139 0.3418 -0.4699
vn 0.7905 0.4084 -0.4564
vn 0.9006 0.4045 0.1588
vn -0.0605 0.3972 0.9158
vn -0.5465 0.4021 0.7346
vn -0.3467 0.4116 -0.8428
vn -0.7697 0.4123 -0.4874
vn 0.1401 -0.9059 0.3996
vn 0.3722 -0.9010 0.2231
vn 0.0137 -0.8771 -0.4802
vn 0.2883 -0.8812 -0.3747
vn -0.7320 -0.6725 0.1093
vn -0.7227 -0.6754 0.1467
vn -0.4691 -0.8803 0.0708
vn -0.6875 -0.7256 0.0295
vn 0.1771 -0.9156 -0.3610
vn 0.0957 -0.9148 -0.3924
vn 0.2690 -0.9298 0.2510
vn 0.1971 -0.9311 0.3070
vn 0.1878 -0.9512 0.2449
vn 0.2088 -0.9509 0.2283
vn 0.1040 -0.9422 -0.3186
vn 0.1248 -0.9423 -0.3105
vn -0.6204 -0.7843 0.0012
vn -0.3836 -0.9201 0.0796
vn -0.4135 -0.9017 0.1260
vn -0.6772 -0.7350 -0.0339
vn 0.0999 -0.9185 -0.3826
vn 0.1693 -0.9191 -0.3557
vn 0.2077 -0.9316 0.2982
vn 0.2592 -0.9310 0.2571
vn 0.2248 -0.9487 0.2223
vn 0.1796 -0.9491 0.2588
vn 0.1444 -0.9417 -0.3039
vn 0.0853 -0.9413 -0.3267
vn -0.6039 -0.7965 -0.0299
vn -0.3591 -0.9267 0.1106
vn -0.5190 -0.8253 0.2223
vn -0.5790 -0.8147 -0.0325
vn -0.2001 -0.9503 -0.2385
vn 0.0491 -0.5444 -0.8374
vn 0.1576 -0.9392 -0.3050
vn 0.1593 -0.9614 0.2243
vn 0.1940 -0.9612 0.1962
vn 0.3371 -0.1693 -0.9261
vn 0.8535 -0.1693 -0.4928
vn 0.9706 -0.1693 0.1711
vn 0.6335 -0.1693 0.7550
vn -0.0000 -0.1693 0.9856
vn -0.6335 -0.1693 0.7550
vn -0.9706 -0.1693 0.1711
vn -0.3371 -0.1693 -0.9261
vn -0.8535 -0.1693 -0.4928
vn -0.0000 -1.0000 -0.0000
vn -0.8530 0.1729 -0.4925
vn -0.3369 0.1729 -0.9255
vn -0.9700 0.1729 0.1710
vn -0.6331 0.1729 0.7545
vn -0.0000 0.1729 0.9849
vn 0.6331 0.1729 0.7545
vn 0.9700 0.1729 0.1710
vn 0.8530 0.1729 -0.4925
vn 0.3369 0.1729 -0.9255
usemtl Leaves
s 1
f 1//1 2//1 3//1
f 2//2 4//3 5//4
f 4//5 6//6 5//7
f 7//8 8//9 6//9
f 8//10 9//11 10//12
f 9//13 11//14 10//15
f 11//16 12//16 13//16
f 14//17 7//17 1//17
f 15//18 3//19 16//20
f 13//21 15//22 16//23
f 17//24 18//25 19//26
f 20//27 21//28 22//29
f 21//30 23//31 22//32
f 24//33 25//33 20//33
f 26//34 24//35 27//36
f 28//37 26//38 27//39
f 29//40 30//40 28//40
f 31//41 29//42 32//43
f 33//44 31//45 32//46
f 34//47 33//47 23//47
f 35//48 36//49 37//50
f 36//51 38//52 37//53
f 39//54 40//54 35//54
f 41//55 39//56 42//57
f 43//58 41//59 42//60
f 44//61 45//61 43//61
f 46//62 44//63 47//64
f 48//65 46//66 47//67
f 49//68 48//68 38//68
f 50//69 51//69 52//69
f 51//70 53//71 54//72
f 53//73 55//74 54//75
f 55//76 56//76 57//76
f 57//77 58//78 59//79
f 58//80 60//81 59//82
f 60//83 61//83 62//83
f 63//84 52//85 64//86
f 62//87 63//88 64//89
f 65//90 66//91 67//92
f 66//93 68//94 67//95
f 69//96 70//96 65//96
f 71//97 69//98 72//99
f 73//100 71//101 72//102
f 74//103 75//103 73//103
f 76//104 74//105 77//106
f 78//107 76//108 77//109
f 79//110 78//110 68//110
f 80//111 81//111 82//111
f 81//112 83//113 84//114
f 83//115 85//116 84//117
f 85//118 86//118 87//118
f 87//119 88//120 89//121
f 88//122 90//123 89//124
f 90//125 91//125 92//125
f 93//126 82//127 94//128
f 92//129 93//130 94//131
f 13//132 36//133 40//134
f 36//135 3//136 49//137
f 11//138 40//138 95//138
f 41//139 11//140 95//141
f 8//142 41//143 45//144
f 96//145 8//145 45//145
f 46//146 6//147 96//148
f 2//149 46//150 97//151
f 49//152 2//152 97//152
f 50//153 48//153 98//153
f 98//154 47//155 53//156
f 53//157 44//158 99//159
f 99//160 43//160 56//160
f 43//161 58//162 56//163
f 58//164 39//165 100//166
f 39//167 61//167 100//167
f 63//168 38//169 50//170
f 35//171 63//172 61//173
f 62//174 66//175 70//176
f 66//177 52//178 79//179
f 60//180 70//180 101//180
f 71//181 60//182 101//183
f 57//184 71//185 75//186
f 102//187 57//187 75//187
f 76//188 55//189 102//190
f 103//191 54//192 76//193
f 79//194 51//194 103//194
f 80//195 78//195 104//195
f 104//196 77//197 83//198
f 83//199 74//200 105//201
f 105//202 73//202 86//202
f 73//203 88//204 86//205
f 88//206 69//207 106//208
f 69//209 91//209 106//209
f 93//210 68//211 80//212
f 65//213 93//214 91//215
f 92//216 21//217 25//218
f 21//219 82//220 34//221
f 90//222 25//222 107//222
f 26//223 90//224 107//225
f 87//226 26//227 30//228
f 108//229 87//229 30//229
f 31//230 85//231 108//232
f 109//233 84//234 31//235
f 34//236 81//236 109//236
f 18//237 33//237 110//237
f 33//238 19//239 110//240
f 19//241 29//242 111//243
f 111//244 28//245 112//246
f 28//247 17//248 112//249
f 27//250 113//251 17//252
f 24//253 114//253 113//253
f 115//254 23//255 18//256
f 20//257 115//258 114//259
f 1//1 116//1 2//1
f 2//2 116//260 4//3
f 4//5 7//261 6//6
f 7//8 14//8 8//9
f 8//10 14//262 9//11
f 9//13 117//263 11//14
f 11//16 117//16 12//16
f 4//17 116//17 7//17
f 116//17 1//17 7//17
f 1//17 15//17 9//17
f 15//17 12//17 9//17
f 12//17 117//264 9//17
f 9//17 14//17 1//17
f 15//18 1//265 3//19
f 13//21 12//266 15//22
f 115//267 18//25 114//268
f 18//25 110//269 19//26
f 114//268 18//25 17//24
f 19//26 111//270 17//24
f 111//270 112//271 17//24
f 17//24 113//272 114//268
f 20//27 25//273 21//28
f 21//30 34//274 23//31
f 24//33 107//33 25//33
f 26//34 107//275 24//35
f 28//37 30//276 26//38
f 29//40 108//40 30//40
f 31//41 108//277 29//42
f 33//44 109//278 31//45
f 34//47 109//47 33//47
f 35//48 40//279 36//49
f 36//51 49//280 38//52
f 39//54 95//54 40//54
f 41//55 95//281 39//56
f 43//58 45//282 41//59
f 44//61 96//61 45//61
f 46//62 96//283 44//63
f 48//65 97//284 46//66
f 49//68 97//68 48//68
f 50//69 98//69 51//69
f 51//70 98//285 53//71
f 53//73 99//286 55//74
f 55//76 99//76 56//76
f 57//77 56//287 58//78
f 58//80 100//288 60//81
f 60//83 100//83 61//83
f 63//84 50//289 52//85
f 62//87 61//290 63//88
f 65//90 70//291 66//91
f 66//93 79//292 68//94
f 69//96 101//96 70//96
f 71//97 101//293 69//98
f 73//100 75//294 71//101
f 74//103 102//103 75//103
f 76//104 102//295 74//105
f 78//107 103//296 76//108
f 79//110 103//110 78//110
f 80//111 104//111 81//111
f 81//112 104//297 83//113
f 83//115 105//298 85//116
f 85//118 105//118 86//118
f 87//119 86//299 88//120
f 88//122 106//300 90//123
f 90//125 106//125 91//125
f 93//126 80//301 82//127
f 92//129 91//302 93//130
f 13//132 16//303 36//133
f 36//135 16//304 3//136
f 11//138 13//138 40//138
f 41//139 10//305 11//140
f 8//142 10//306 41//143
f 96//145 6//145 8//145
f 46//146 5//307 6//147
f 2//149 5//308 46//150
f 49//152 3//152 2//152
f 50//153 38//153 48//153
f 98//154 48//309 47//155
f 53//157 47//310 44//158
f 99//160 44//160 43//160
f 43//161 42//311 58//162
f 58//164 42//312 39//165
f 39//167 35//167 61//167
f 63//168 37//313 38//169
f 35//171 37//314 63//172
f 62//174 64//315 66//175
f 66//177 64//316 52//178
f 60//180 62//180 70//180
f 71//181 59//317 60//182
f 57//184 59//318 71//185
f 102//187 55//187 57//187
f 76//188 54//319 55//189
f 103//191 51//320 54//192
f 79//194 52//194 51//194
f 80//195 68//195 78//195
f 104//196 78//321 77//197
f 83//199 77//322 74//200
f 105//202 74//202 73//202
f 73//203 72//323 88//204
f 88//206 72//324 69//207
f 69//209 65//209 91//209
f 93//210 67//325 68//211
f 65//213 67//326 93//214
f 92//216 94//327 21//217
f 21//219 94//328 82//220
f 90//222 92//222 25//222
f 26//223 89//329 90//224
f 87//226 89//330 26//227
f 108//229 85//229 87//229
f 31//230 84//331 85//231
f 109//233 81//332 84//234
f 34//236 82//236 81//236
f 18//237 23//237 33//237
f 33//238 32//333 19//239
f 19//241 32//334 29//242
f 111//244 29//335 28//245
f 28//247 27//336 17//248
f 27//250 24//337 113//251
f 24//253 20//253 114//253
f 115//254 22//338 23//255
f 20//257 22//339 115//258
usemtl Bark
f 118//340 119//340 120//340
f 121//341 122//341 119//341
f 122//342 123//342 124//342
f 124//343 125//343 126//343
f 126//344 127//344 128//344
f 128//345 129//345 130//345
f 129//346 131//346 130//346
f 118//17 127//17 123//17
f 132//347 118//347 120//347
f 131//348 133//348 132//348
f 134//349 135//349 136//349
f 131//350 137//350 138//350
f 132//351 139//351 137//351
f 140//352 131//352 138//352
f 128//353 140//353 136//353
f 126//354 136//354 141//354
f 124//355 141//355 135//355
f 122//356 135//356 142//356
f 134//357 122//357 142//357
f 139//358 119//358 134//358
f 118//340 121//340 119//340
f 121//341 143//341 122//341
f 122//342 143//342 123//342
f 124//343 123//343 125//343
f 126//344 125//344 127//344
f 128//345 127//345 129//345
f 129//346 144//346 131//346
f 143//17 121//17 123//17
f 121//17 118//17 123//17
f 118//17 133//17 144//17
f 144//17 129//17 118//17
f 129//17 127//17 118//17
f 127//17 125//17 123//17
f 132//347 133//347 118//347
f 131//348 144//348 133//348
f 137//349 139//349 138//349
f 139//349 134//349 138//349
f 134//349 142//349 135//349
f 135//349 141//349 136//349
f 136//349 140//349 134//349
f 140//349 138//349 134//349
f 131//350 132//350 137//350
f 132//351 120//351 139//351
f 140//352 130//352 131//352
f 128//353 130//353 140//353
f 126//354 128//354 136//354
f 124//355 126//355 141//355
f 122//356 124//356 135//356
f 134//357 119//357 122//357
f 139//358 120//358 119//358
